<svg width="43" height="42" viewBox="0 0 43 42" fill="none" xmlns="http://www.w3.org/2000/svg">
<path d="M9.81713 9.43311H40.2987C41.1915 9.43311 41.8389 10.2836 41.6013 11.1442L39.1156 20.1451C38.6302 21.9027 37.0312 23.12 35.2078 23.12H12.3783M0.181885 1.58871H6.49736C7.81335 1.58871 8.93805 2.53658 9.16099 3.83356L13.1946 27.2997C13.4176 28.5966 14.5423 29.5445 15.8583 29.5445H38.2941" stroke="black" stroke-width="2.02703"/>
<path d="M21.4913 37.5824C21.4913 39.0995 20.1993 40.398 18.5191 40.398C16.839 40.398 15.547 39.0995 15.547 37.5824C15.547 36.0653 16.839 34.7668 18.5191 34.7668C20.1993 34.7668 21.4913 36.0653 21.4913 37.5824Z" stroke="black" stroke-width="2.02703"/>
<path d="M39.0284 37.5824C39.0284 39.0995 37.7364 40.398 36.0562 40.398C34.3761 40.398 33.0841 39.0995 33.0841 37.5824C33.0841 36.0653 34.3761 34.7668 36.0562 34.7668C37.7364 34.7668 39.0284 36.0653 39.0284 37.5824Z" stroke="black" stroke-width="2.02703"/>
</svg>
