<svg width="120" height="104" viewBox="0 0 120 104" fill="none" xmlns="http://www.w3.org/2000/svg">
<path d="M62.2584 23.0317C66.907 25.376 70.6018 29.2558 72.7166 34.0132C74.3531 31.7757 76.5601 30.0183 79.1073 28.9243M62.2584 23.0317C59.0281 21.4113 55.4552 20.5923 51.8416 20.6438C48.228 20.6954 44.6799 21.6159 41.4971 23.3278C44.2166 19.2586 53.5976 10.3426 63.7309 5.55324C68.3687 3.35799 73.6048 1.46316 80.8062 2.13889C86.8381 2.7049 90.3474 5.16748 93.3455 8.20392C97.3224 12.2313 97.2719 17.6851 96.9245 19.8803C96.3915 23.2198 94.9286 26.1474 92.8971 29.7359C91.954 31.3982 90.7288 34.1769 84.5166 41.5786C77.8394 49.5306 75.153 51.4873 65.7581 58.7566C74.4747 43.3245 77.0174 36.4645 79.3685 28.9374C80.706 24.6574 80.2707 21.6376 78.3123 20.0301C73.9374 16.439 68.7467 18.5036 62.2584 23.0317ZM31.1513 77.4271C28.9613 82.2687 30.9414 85.1589 33.1332 86.1272C34.9079 86.9109 37.6134 87.1129 39.7233 86.6331C42.4062 86.0236 46.6443 84.6555 53.3076 79.3734M14.6264 77.3749C13.1661 82.3192 13.4491 89.936 17.0646 95.2661C24.9765 106.926 42.1772 102.531 54.8472 89.0835C59.842 83.783 63.1196 79.6102 65.5134 75.3512" stroke="#F8DC4A" stroke-width="3" stroke-miterlimit="10"/>
<path d="M118.337 61.3306C118.337 72.0143 109.676 80.6752 98.9926 80.6752C94.2374 80.683 89.6471 78.9322 86.105 75.7596C84.8717 77.3297 83.2906 78.5921 81.4864 79.4472C79.6822 80.3024 77.7041 80.7269 75.7079 80.6875C73.7117 80.6481 71.7519 80.1458 69.9828 79.22C68.2138 78.2943 66.6839 76.9705 65.5135 75.3529C68.0779 70.7944 69.1168 67.6378 71.5663 61.8662C65.2226 68.0801 61.2684 72.3435 56.2492 76.8873C55.9078 77.1967 55.5665 77.4991 55.2251 77.7946C54.8159 78.1487 54.4057 78.493 53.9947 78.8274C53.7753 79.005 53.5584 79.1792 53.3442 79.3498L53.3103 79.376C50.7493 81.337 47.9471 82.8043 44.6285 82.8043C42.418 82.8034 40.2882 81.9736 38.6599 80.4788C37.0315 78.9839 36.023 76.9327 35.8336 74.7303C34.3962 75.8275 32.8233 76.7348 31.154 77.4298C28.5323 78.5141 25.7217 79.0676 22.8847 79.0581C20.0477 79.0487 17.2408 78.4766 14.6264 77.3749C7.1986 74.2253 2 66.989 2 58.5659C2 47.2457 11.3801 38.0745 22.9503 38.0745C25.3518 38.072 27.7365 38.4753 30.0036 39.2675C30.6062 35.8104 32.0093 32.5422 34.1008 29.7244C36.1923 26.9065 38.9141 24.6171 42.0487 23.0393C45.1832 21.4615 48.6434 20.6391 52.1527 20.6378C55.6619 20.6364 59.1228 21.4563 62.2585 23.0317C68.7467 18.5036 73.9375 16.4389 78.3123 20.0301C80.2707 21.6375 80.7061 24.6574 79.3686 28.9374C77.0174 36.4644 74.4747 43.3245 65.7582 58.7566C75.1531 51.4873 77.8395 49.5306 84.5167 41.5786C90.7289 34.1769 91.9541 31.3982 92.8971 29.7359C95.0939 30.9996 96.9458 32.7846 98.2897 34.9333C99.6335 37.082 100.428 39.5284 100.603 42.0566C110.531 42.8708 118.337 51.1895 118.337 61.3306Z" stroke="#F8DC4A" stroke-width="3" stroke-miterlimit="10"/>
</svg>
