<svg width="150" height="150" viewBox="0 0 150 150" fill="none" xmlns="http://www.w3.org/2000/svg">
<path d="M75 28.5491L105.812 13.1645L83.375 1.96998C78.125 -0.65666 71.875 -0.65666 66.625 1.96998L44.25 13.1645L75.0625 28.5491H75Z" fill="#F8DC4A"/>
<path d="M31.25 107.036L0 91.4634V121.107C0 127.799 3.5625 134.053 9.4375 137.367L31.25 149.875V106.973V107.036Z" fill="#F8DC4A"/>
<path d="M118.75 149.937L140.562 137.43C146.375 134.115 150 127.861 150 121.169V91.5259L118.75 107.098V150V149.937Z" fill="#F8DC4A"/>
<path d="M30.5625 67.7611L5.5 80.394L37.5 96.0913L61.8125 83.8336L30.5625 67.7611Z" fill="#F8DC4A"/>
<path d="M68.75 73.3271V38.9306L37.5 23.3583V57.2545L68.75 73.3271Z" fill="#F8DC4A"/>
<path d="M112.5 57.2545V23.3583L81.25 38.9306V73.3271L112.5 57.2545Z" fill="#F8DC4A"/>
<path d="M119.438 67.7611L88.1875 83.8336L112.5 96.0913L144.5 80.394L119.438 67.7611Z" fill="#F8DC4A"/>
<path d="M68.75 94.5278L43.75 106.723V149.625L68.75 135.553V94.5278Z" fill="#F8DC4A"/>
<path d="M81.25 94.5278V135.491L106.25 149.5V106.598L81.25 94.5278Z" fill="#F8DC4A"/>
</svg>
