<svg width="21" height="21" viewBox="0 0 21 21" fill="none" xmlns="http://www.w3.org/2000/svg">
<path d="M19.9482 19.0889L14.9781 14.1188C16.3325 12.4624 16.9984 10.3487 16.8381 8.215C16.6778 6.08131 15.7035 4.09086 14.1168 2.65537C12.53 1.21987 10.4523 0.449156 8.31324 0.502639C6.17421 0.556121 4.13756 1.42971 2.62456 2.94271C1.11156 4.45571 0.237976 6.49236 0.184493 8.63139C0.131011 10.7704 0.901726 12.8482 2.33722 14.4349C3.77272 16.0216 5.76316 16.9959 7.89685 17.1562C10.0305 17.3165 12.1442 16.6506 13.8007 15.2962L18.7708 20.2663C18.9278 20.418 19.1382 20.5019 19.3565 20.5C19.5748 20.4981 19.7836 20.4105 19.938 20.2562C20.0924 20.1018 20.18 19.8929 20.1819 19.6746C20.1838 19.4563 20.0998 19.246 19.9482 19.0889ZM8.53503 15.5144C7.21757 15.5144 5.92969 15.1237 4.83427 14.3918C3.73884 13.6598 2.88506 12.6195 2.38089 11.4023C1.87672 10.1851 1.7448 8.84578 2.00183 7.55364C2.25885 6.26149 2.89327 5.07458 3.82485 4.143C4.75644 3.21141 5.94335 2.577 7.23549 2.31997C8.52764 2.06295 9.86698 2.19486 11.0842 2.69903C12.3013 3.2032 13.3417 4.05699 14.0736 5.15241C14.8055 6.24784 15.1962 7.53571 15.1962 8.85317C15.1942 10.6192 14.4918 12.3124 13.243 13.5612C11.9942 14.8099 10.3011 15.5124 8.53503 15.5144Z" fill="black" fill-opacity="0.75"/>
</svg>
