<svg width="150" height="150" viewBox="0 0 150 150" fill="none" xmlns="http://www.w3.org/2000/svg">
<path d="M50.5801 5.41217C49.8019 3.78605 48.6049 2.41831 47.1233 1.46235C45.6417 0.50638 43.9342 0 42.1922 0C40.4502 0 38.7427 0.50638 37.2611 1.46235C35.7795 2.41831 34.5825 3.78605 33.8043 5.41217L0.990355 73.8877C0.275789 75.3784 -0.0619003 77.0348 0.00932614 78.6998C0.0805526 80.3649 0.558332 81.9833 1.39734 83.4016C2.23634 84.8199 3.40874 85.991 4.8033 86.8038C6.19787 87.6166 7.76834 88.0442 9.36573 88.0459C11.1071 88.0464 12.8142 87.5409 14.2958 86.586C15.7773 85.6311 16.9746 84.2646 17.7536 82.6396L21.4225 75.0029H62.9619L66.6183 82.6396C67.3963 84.2626 68.5917 85.6278 70.0708 86.5826C71.5499 87.5373 73.2544 88.044 74.9937 88.0459C76.5921 88.0464 78.1641 87.6205 79.5604 86.8086C80.9567 85.9967 82.1308 84.8258 82.9713 83.4072C83.8117 81.9885 84.2906 80.3692 84.3624 78.7031C84.4342 77.037 84.0966 75.3794 83.3815 73.8877L50.5801 5.41217ZM30.7979 55.4385L42.1922 31.6611L53.5865 55.4385H30.7979Z" fill="#F8DC4A"/>
<path d="M81.2439 150C80.0125 150.001 78.7931 149.748 77.6552 149.257C76.5173 148.766 75.4834 148.045 74.6124 147.137L43.361 114.53C41.6022 112.695 40.6141 110.206 40.6141 107.61C40.6141 105.015 41.6022 102.526 43.361 100.691C45.1198 98.856 47.5052 97.825 49.9925 97.825C52.4798 97.825 54.8653 98.856 56.6241 100.691L81.2439 126.386L133.99 71.3444C135.749 69.5093 138.134 68.4783 140.622 68.4783C143.109 68.4783 145.494 69.5093 147.253 71.3444C149.012 73.1795 150 75.6684 150 78.2637C150 80.8589 149.012 83.3479 147.253 85.183L87.8755 147.137C87.0045 148.045 85.9705 148.766 84.8326 149.257C83.6948 149.748 82.4753 150.001 81.2439 150Z" fill="#F8DC4A"/>
</svg>
