<svg width="24" height="25" viewBox="0 0 24 25" fill="none" xmlns="http://www.w3.org/2000/svg">
<path fill-rule="evenodd" clip-rule="evenodd" d="M1.684 2.184C0 3.8685 0 6.579 0 12V13C0 18.421 0 21.1315 1.684 22.816C3.3685 24.5 6.079 24.5 11.5 24.5H12.5C17.921 24.5 20.6315 24.5 22.316 22.816C24 21.132 24 18.421 24 13V12C24 6.579 24 3.8685 22.316 2.184C20.632 0.5 17.921 0.5 12.5 0.5H11.5H11.4952C6.07739 0.5 3.3675 0.5 1.684 2.184ZM4.73793 7.84706H6.48793C6.93493 7.84706 7.10343 8.04206 7.27143 8.52756C8.12743 11.0206 9.57043 13.1996 10.1634 13.1996C10.3864 13.1996 10.4884 13.0971 10.4884 12.5321V9.95456C10.4482 9.22132 10.1921 8.90413 10.0024 8.66921C9.88524 8.52416 9.79343 8.41047 9.79343 8.24956C9.79343 8.05356 9.96043 7.84706 10.2384 7.84706H12.9884C13.3589 7.84706 13.4884 8.04556 13.4884 8.49056V11.9576C13.4884 12.3281 13.6494 12.4581 13.7604 12.4581C13.9829 12.4581 14.1684 12.3281 14.5764 11.9201C15.8369 10.5111 16.7269 8.34206 16.7269 8.34206C16.8379 8.08206 17.0429 7.84706 17.4879 7.84706H19.2374C19.7674 7.84706 19.8784 8.11956 19.7674 8.49056C19.5444 9.51006 17.4124 12.5136 17.4124 12.5136C17.2274 12.8101 17.1524 12.9586 17.4124 13.2921C17.5038 13.4202 17.6992 13.6117 17.9228 13.8308C18.1521 14.0555 18.4109 14.3091 18.6174 14.5531C19.3694 15.3986 19.9359 16.1121 20.0934 16.6036C20.2379 17.0971 19.9879 17.3471 19.4879 17.3471H17.7379C17.2692 17.3471 17.0332 17.0845 16.5235 16.5173C16.3072 16.2768 16.0418 15.9814 15.6884 15.6281C14.6504 14.6271 14.2054 14.4971 13.9454 14.4971C13.5929 14.4971 13.4879 14.5971 13.4879 15.0971V16.6666C13.4879 17.0971 13.3504 17.3471 12.2379 17.3471C10.3839 17.3471 8.34643 16.2216 6.90043 14.1451C4.73093 11.1046 4.13793 8.80556 4.13793 8.34206C4.13793 8.08206 4.23793 7.84706 4.73793 7.84706Z" fill="black"/>
</svg>
