<svg width="35" height="25" viewBox="0 0 35 25" fill="none" xmlns="http://www.w3.org/2000/svg">
<path fill-rule="evenodd" clip-rule="evenodd" d="M30.4455 1.21652C31.9163 1.61078 33.0744 2.77245 33.4675 4.24768C34.1818 6.92142 34.1818 12.5 34.1818 12.5C34.1818 12.5 34.1818 18.0785 33.4675 20.7525C33.0744 22.2276 31.9163 23.3892 30.4455 23.7837C27.7799 24.5 17.0909 24.5 17.0909 24.5C17.0909 24.5 6.40197 24.5 3.73629 23.7837C2.26563 23.3892 1.10733 22.2276 0.71427 20.7525C0 18.0785 0 12.5 0 12.5C0 12.5 0 6.92142 0.71427 4.24768C1.10733 2.77245 2.26563 1.61078 3.73629 1.21652C6.40197 0.5 17.0909 0.5 17.0909 0.5C17.0909 0.5 27.7799 0.5 30.4455 1.21652ZM22.5291 12.5003L13.5952 17.565V7.43518L22.5291 12.5003Z" fill="black"/>
</svg>
